# xmcd
#
# Track frame offsets:
#	150
#	21917
#	35248
#	47519
#	57270
#	68179
#	80359
#	90016
#	101872
#	111193
#	123954
#	135220
#	146570
#	157922
#	170152
#	180691
#	195067
#	204317
#	216180
#	230285
#	240812
#	254860
#	266398
#	279174
#
# Disc length: 4001 seconds
#
# Revision: 1
# Processed by: cddbd v1.5.1PL0 Copyright (c) Steve Scherf et al.
# Submitted via: audiograbber 1.83.01
#
DISCID=400f9f18
DTITLE=Various Artist - Welcome to the Club
DYEAR=2004
DGENRE=Blues
TTITLE0=Willie Wright and the Sparklers - Gibble Gobble
TTITLE1=Lee "Shot" Williams - You're Welcome to the Club
TTITLE2=Syl Johnson - Well Oh Well
TTITLE3=Eddy Clearwater - I Was Gone
TTITLE4=Jesse Anderson - How Long Has It Been
TTITLE5=Danny Overbea - I'm Tired of Being Tossed Around
TTITLE6=Willie Wright and the Sparklers with Sammy Jr Faggit - I Want to Love You
TTITLE7=Syl Johnson - I Resign From Your Love
TTITLE8=Lee "Shot" Williams - I'm Tore Up
TTITLE9=Willie Wright and the Sparklers with Sammy Jr Faggit - Hard Times
TTITLE10=Syl Johnson - (She's So Fine) I Just Gotta Make Her Mine
TTITLE11=Willie Wright and the Sparklers with Jesse Anderson - Got A Feelin'
TTITLE12=Lee "Shot" Williams - Don't Misuse My Love
TTITLE13=Willie Wright and the Sparklers with Jesse Anderson - I'm Gonna Leave Yo
TTITLE13=u Baby and I'm Goin' Away To Stay
TTITLE14=Syl Johnson - I Wanna Know
TTITLE15=Lee "Shot" Williams - When You Move, You Lose
TTITLE16=Willie Wright and the Sparklers with Sammy Jr Faggit - Slowly Losing My 
TTITLE16=Mind
TTITLE17=Syl Johnson - I've Got To Find My Baby
TTITLE18=Willie Wright and the Sparklers with Sammy Jr Faggit - Sufferin' In Mind
TTITLE19=Jesse Anderson - You'd Better Think Twice
TTITLE20=Willie Wright and the Sparklers with Jesse Anderson - What Will I Say
TTITLE21=Syl Johnson - Little Sally Walker
TTITLE22=Eddy Clearwater - Twist Like This
TTITLE23=Willie Wright and the Sparklers - Bloodhound
EXTD=Ace Records
EXTT0=
EXTT1=
EXTT2=
EXTT3=
EXTT4=
EXTT5=
EXTT6=
EXTT7=
EXTT8=
EXTT9=
EXTT10=
EXTT11=
EXTT12=
EXTT13=
EXTT14=
EXTT15=
EXTT16=
EXTT17=
EXTT18=
EXTT19=
EXTT20=
EXTT21=
EXTT22=
EXTT23=
PLAYORDER=
